# xmcd
#
# Track frame offsets: 
#        150
#        15122
#        30075
#        43105
#        57602
#        69017
#        82545
#        96257
#        109807
#        119370
#        129775
#        145292
#        161490
#        175682
#
# Disc length: 2507 seconds
#
# Revision: 3
# Processed by: cddbd v1.4PL0 Copyright (c) Steve Scherf et al.
# Submitted via: ExactAudioCopy v0.90b3
#
DISCID=9e09c90e
DTITLE=George Jones - I Am What I Am (Australian)
DYEAR=1900
DGENRE=Country
TTITLE0=He Stopped Loving Her Today
TTITLE1=I've Aged Twenty Years In Five
TTITLE2=Brother To The Blues
TTITLE3=If Drinkin' Don't Kill Me (Her Memory Will)
TTITLE4=His Lovin' Her Is Gettin' In My Way
TTITLE5=I'm Not Ready Yet
TTITLE6=I'm The One She Missed Him With Today
TTITLE7=Good Hearted Woman
TTITLE8=A Hard Act To Follow
TTITLE9=Bone Dry
TTITLE10=I'm A Fool For Loving Her (Bonus Track)
TTITLE11=Am I Losing Your Memory Or Mine (Bonus Track)
TTITLE12=The Ghost Of Another Man (Bonus Track)
TTITLE13=It's All In My Mind (Bonus Track)
EXTD=
EXTT0=
EXTT1=
EXTT2=
EXTT3=
EXTT4=
EXTT5=
EXTT6=
EXTT7=
EXTT8=
EXTT9=
EXTT10=
EXTT11=
EXTT12=
EXTT13=
PLAYORDER=
